<svg width="82" height="512" viewBox="0 0 82 512" fill="none" xmlns="http://www.w3.org/2000/svg">
<path d="M0.767029 414.441C-0.812971 394.233 -0.920967 362.425 10.19 346.03C24.46 325.006 30.343 299.351 30.343 273.97L30.343 213.511C30.343 135.786 11.17 84.097 11.17 50.873C11.17 30.339 18.796 0 40.8 0C64.33 0 70.43 30.339 70.43 50.873C70.43 83.226 51.257 127.944 51.257 209.808L51.257 277.348C51.257 302.348 59.591 326.205 72.445 347.665C82.576 364.604 82.413 395.106 80.779 414.659L73.044 508.07C72.826 510.303 70.974 511.991 68.796 511.991H68.033C65.691 511.991 63.785 510.085 63.785 507.742L63.785 401.313C63.785 398.644 61.606 396.466 58.937 396.466C56.268 396.466 54.089 398.644 54.089 401.313L54.089 507.743C54.089 510.085 52.183 511.992 49.841 511.992C47.499 511.992 45.538 510.086 45.538 507.743L45.538 401.314C45.538 398.645 43.414 396.467 40.69 396.467C38.021 396.467 35.843 398.645 35.843 401.314L35.843 507.743C35.843 510.085 33.936 511.992 31.594 511.992C29.252 511.992 27.346 510.086 27.346 507.743L27.346 401.314C27.346 398.645 25.167 396.467 22.498 396.467C19.829 396.467 17.65 398.645 17.65 401.314L17.65 507.743C17.65 510.085 15.744 511.992 13.347 511.992H12.639C10.46 511.992 8.60801 510.303 8.39001 508.071L0.767029 414.441Z" fill="#F15533"/>
<mask id="mask0_68_493" style="mask-type:alpha" maskUnits="userSpaceOnUse" x="0" y="0" width="82" height="512">
<path d="M0.767029 414.441C-0.812971 394.233 -0.920967 362.425 10.19 346.03C24.46 325.006 30.343 299.351 30.343 273.97L30.343 213.511C30.343 135.786 11.17 84.097 11.17 50.873C11.17 30.339 18.796 0 40.8 0C64.33 0 70.43 30.339 70.43 50.873C70.43 83.226 51.257 127.944 51.257 209.808L51.257 277.348C51.257 302.348 59.591 326.205 72.445 347.665C82.576 364.604 82.413 395.106 80.779 414.659L73.044 508.07C72.826 510.303 70.974 511.991 68.796 511.991H68.033C65.691 511.991 63.785 510.085 63.785 507.742L63.785 401.313C63.785 398.644 61.606 396.466 58.937 396.466C56.268 396.466 54.089 398.644 54.089 401.313L54.089 507.743C54.089 510.085 52.183 511.992 49.841 511.992C47.499 511.992 45.538 510.086 45.538 507.743L45.538 401.314C45.538 398.645 43.414 396.467 40.69 396.467C38.021 396.467 35.843 398.645 35.843 401.314L35.843 507.743C35.843 510.085 33.936 511.992 31.594 511.992C29.252 511.992 27.346 510.086 27.346 507.743L27.346 401.314C27.346 398.645 25.167 396.467 22.498 396.467C19.829 396.467 17.65 398.645 17.65 401.314L17.65 507.743C17.65 510.085 15.744 511.992 13.347 511.992H12.639C10.46 511.992 8.60801 510.303 8.39001 508.071L0.767029 414.441Z" fill="#F15533"/>
</mask>
<g mask="url(#mask0_68_493)">
<rect x="41" width="41" height="512" fill="white" fill-opacity="0.2"/>
<rect x="41" y="350" width="12" height="55" rx="6" fill="white" fill-opacity="0.12"/>
<rect x="41" y="334" width="12" height="12" rx="6" fill="white" fill-opacity="0.12"/>
</g>
</svg>
