<svg width="106" height="126" viewBox="0 0 106 126" fill="none" xmlns="http://www.w3.org/2000/svg">
<path d="M100.964 20.3917C99.6587 26.8937 97.0855 33.075 93.3914 38.5825C89.6972 44.0901 84.9544 48.8161 79.4338 52.4907C73.9132 56.1654 67.7228 58.7167 61.2162 59.9989C54.7096 61.2812 48.0141 61.2693 41.5121 59.964C35.0101 58.6587 28.8288 56.0855 23.3213 52.3914C17.8137 48.6972 13.0877 43.9544 9.41306 38.4338C5.73843 32.9132 3.18714 26.7228 1.90487 20.2162C0.622606 13.7096 0.634466 7.01415 1.93978 0.512123L100.964 20.3917Z" fill="#FBA8B7"/>
<path d="M105.151 29.4922C106.327 36.0188 106.207 42.7131 104.796 49.1931C103.386 55.6731 100.713 61.8119 96.9297 67.2588C93.1468 72.7057 88.3279 77.3542 82.7485 80.9388C77.169 84.5235 70.9381 86.974 64.4115 88.1506C57.885 89.3272 51.1906 89.2067 44.7106 87.7962C38.2306 86.3856 32.0919 83.7125 26.6449 79.9295C21.198 76.1465 16.5495 71.3277 12.9649 65.7482C9.38028 60.1687 6.92972 53.9378 5.75314 47.4113L105.151 29.4922Z" fill="#F15533"/>
<path d="M105.952 69.4519C105.952 76.0837 104.646 82.6505 102.108 88.7774C99.5699 94.9044 95.8501 100.471 91.1607 105.161C86.4713 109.85 80.9043 113.57 74.7773 116.108C68.6504 118.646 62.0836 119.952 55.4518 119.952C48.8201 119.952 42.2532 118.646 36.1263 116.108C29.9994 113.57 24.4323 109.85 19.7429 105.161C15.0536 100.471 11.3338 94.9044 8.79589 88.7774C6.25803 82.6505 4.95181 76.0837 4.95181 69.4519L105.952 69.4519Z" fill="#3A290E"/>
<rect x="35.9518" y="115.952" width="39" height="10" fill="#3A290E"/>
</svg>
