<svg width="119" height="511" viewBox="0 0 119 511" fill="none" xmlns="http://www.w3.org/2000/svg">
<path d="M-1.52588e-05 391.457C-1.52588e-05 360.302 13.835 336.935 30.992 324.517C42.485 316.129 48.803 302.294 48.803 288.024V231.922C48.803 135.297 29.631 83.335 29.631 50.873C29.631 30.339 37.202 0 59.207 0C82.791 0 88.837 30.339 88.837 50.873C88.837 82.682 69.664 127.944 69.664 228.872V288.024C69.664 302.294 75.982 316.129 87.475 324.517C104.578 336.936 118.467 360.302 118.467 391.457C118.467 441.403 89.436 510.958 59.207 510.958C29.031 510.958 -1.52588e-05 441.403 -1.52588e-05 391.457Z" fill="#4973A5"/>
<mask id="mask0_70_502" style="mask-type:alpha" maskUnits="userSpaceOnUse" x="0" y="0" width="119" height="511">
<path d="M-1.52588e-05 391.457C-1.52588e-05 360.302 13.835 336.935 30.992 324.517C42.485 316.129 48.803 302.294 48.803 288.024V231.922C48.803 135.297 29.631 83.335 29.631 50.873C29.631 30.339 37.202 0 59.207 0C82.791 0 88.837 30.339 88.837 50.873C88.837 82.682 69.664 127.944 69.664 228.872V288.024C69.664 302.294 75.982 316.129 87.475 324.517C104.578 336.936 118.467 360.302 118.467 391.457C118.467 441.403 89.436 510.958 59.207 510.958C29.031 510.958 -1.52588e-05 441.403 -1.52588e-05 391.457Z" fill="#4973A5"/>
</mask>
<g mask="url(#mask0_70_502)">
<rect x="59" width="59" height="512" fill="white" fill-opacity="0.2"/>
<rect x="41" y="409" width="12" height="58" rx="6" fill="white" fill-opacity="0.12"/>
<rect x="41" y="471" width="12" height="12" rx="6" fill="white" fill-opacity="0.12"/>
</g>
</svg>
