<svg width="76" height="76" viewBox="0 0 76 76" fill="none" xmlns="http://www.w3.org/2000/svg">
<path d="M18 20.5H13C13 17.9756 21.1738 4.1499 21.1738 4.1499C23 0.5 26.6255 0.5 28 0.5V30.5H18V20.5ZM13 52.7241L28 57.7241V30.5H15.5C14.1255 30.5 12.4995 31.501 11.8745 32.7241C11.8745 32.7241 8 38 8 40.5H13V52.7241ZM58 20.5H63C63 17.9756 54.8262 4.1499 54.8262 4.1499C53 0.5 49.3745 0.5 48 0.5V32L58 36V20.5ZM63 40.5H68C68 38 64.1255 32.7241 64.1255 32.7241C63.5005 31.501 61.8745 30.5 60.5 30.5H48V60L63 54V40.5ZM68 70.5V60.5H73C73 57.9756 69.1255 52.7241 69.1255 52.7241C68.5005 51.501 66.8745 50.5 65.5 50.5H48V70.5H28V50.5H10.5C9.12549 50.5 7.49951 51.501 6.87451 52.7241C6.87451 52.7241 3 57.9756 3 60.5H8V70.5H0.5V75.5H75.5V70.5H68Z" fill="#FFF9F0"/>
</svg>
