<svg width="80" height="80" viewBox="0 0 80 80" fill="none" xmlns="http://www.w3.org/2000/svg">
<path d="M4.13869 56.6162C4.68367 56.073 5.33411 55.6416 6.05188 55.3472C6.76965 55.0529 7.54031 54.9015 8.3187 54.902H25.0385L32.6091 47.0027C27.0845 46.6171 16.5031 44.4601 12.6155 34.0467C10.2074 30.038 8.80032 25.5307 8.50869 20.8908C6.80895 8.36651 19.5539 -0.284555 31.674 0.00715893L39.639 0.00691574C42.6644 0.00691574 46.0112 2.52099 47.4143 5.8492C50.3208 11.3822 44.0302 19.0126 38.1919 18.6052C35.8591 18.4157 33.6938 17.3447 32.156 15.6198C31.9759 15.4117 31.8606 15.1575 31.824 14.8873C31.7874 14.617 31.8309 14.3422 31.9494 14.0955C32.068 13.8488 32.2565 13.6405 32.4926 13.4954C32.7287 13.3503 33.0025 13.2746 33.2814 13.2771H35.9999C36.2289 13.2719 36.4467 13.1793 36.6068 13.0191C36.7669 12.859 36.8565 12.644 36.8565 12.4201C36.8565 12.1962 36.7669 11.9812 36.6068 11.821C36.4467 11.6608 36.2289 11.5682 35.9999 11.563H32.0099C30.8994 11.4753 29.7824 11.6139 28.7295 11.97C27.6767 12.3261 26.7109 12.8921 25.8935 13.632C25.0761 14.3718 24.4247 15.2695 23.9807 16.2682C23.5367 17.267 23.3097 18.3449 23.314 19.4338C23.1528 21.3717 23.7564 23.2964 25.0011 24.8131C26.2458 26.3298 28.0372 27.3234 30.0077 27.5902H35.3714C41.1275 16.7875 53.2285 17.5433 59.4134 22.3335H50.3809C50.2784 22.3311 50.1759 22.3359 50.0741 22.3478C49.3847 22.401 48.7138 22.5916 48.1027 22.9078C47.4916 23.224 46.9531 23.6591 46.5205 24.1863C46.0878 24.7135 45.7702 25.3217 45.5871 25.9734C45.4039 26.6251 45.3593 27.3066 45.4557 27.9758C44.455 28.2862 43.5807 28.8986 42.9584 29.725C42.336 30.5514 41.9977 31.5493 41.9918 32.5754V38.0178C41.997 38.3933 42.1532 38.7517 42.4268 39.0155C42.7003 39.2793 43.0691 39.4272 43.4533 39.4272C43.8376 39.4272 44.2064 39.2793 44.4799 39.0155C44.7535 38.7517 44.9097 38.3933 44.9149 38.0178C44.9862 37.3715 44.7162 32.1463 45.1341 31.6755C45.3085 31.3605 45.5657 31.0965 45.879 30.9108C46.1924 30.725 46.5507 30.6241 46.9172 30.6185C47.1096 30.6204 47.3005 30.5847 47.4787 30.5136C47.6569 30.4424 47.8188 30.3373 47.9548 30.2043C48.0909 30.0712 48.1985 29.913 48.2713 29.7389C48.3441 29.5647 48.3806 29.3782 48.3787 29.1901V27.1474C48.3795 26.6286 48.5907 26.1313 48.966 25.7645C49.3414 25.3976 49.8502 25.1912 50.381 25.1904H63.7249L78.3839 34.9324C78.6351 35.1083 78.8233 35.3568 78.9223 35.6428C79.0212 35.9289 79.0258 36.238 78.9354 36.5268C78.845 36.8155 78.6641 37.0692 78.4184 37.2521C78.1726 37.4351 77.8742 37.538 77.5654 37.5464H70.2287V38.3892H64.4995C63.5202 37.8973 62.4476 37.6079 61.3487 37.5391C60.2498 37.4703 59.1482 37.6236 58.1127 37.9893C54.1227 39.4892 52.2227 37.6036 52.135 37.5321C51.8722 37.2636 51.5126 37.1059 51.1327 37.0925C50.7527 37.0792 50.3824 37.2113 50.1006 37.4607C49.8188 37.7101 49.6477 38.0572 49.6237 38.428C49.5997 38.7989 49.7247 39.1643 49.9721 39.4464C50.665 40.1011 51.4848 40.614 52.3832 40.955C53.2817 41.2959 54.2408 41.4581 55.2042 41.4319C57.3222 41.7114 59.5932 39.8054 61.971 40.546L63.3011 41.0034C63.642 41.167 64.0174 41.2502 64.3972 41.2462H66.911L69.2495 44.8745C69.3882 45.0909 69.465 45.3396 69.4718 45.5949C69.4787 45.8501 69.4154 46.1025 69.2885 46.3257C69.1616 46.5489 68.9758 46.7348 68.7504 46.864C68.525 46.9931 68.2683 47.0608 68.0071 47.06H49.1389L41.6121 54.9022H64.3972C70.3045 54.829 72.5824 62.7854 67.3931 65.6298C66.4293 66.1746 65.3352 66.4604 64.2218 66.4582H56.6512C55.3838 66.4587 54.1685 66.951 53.2723 67.8269C52.3761 68.7028 51.8724 69.8906 51.872 71.1293V75.8288C51.8714 76.1729 51.7441 76.5052 51.5133 76.765C51.2824 77.0247 50.9636 77.1945 50.6151 77.2431C48.4394 77.504 46.3699 78.3111 44.6082 79.5857C44.3295 79.8489 43.958 79.9972 43.5705 80H26.6315C26.4394 80.0006 26.2491 79.9641 26.0714 79.8926C25.8938 79.821 25.7324 79.7158 25.5966 79.5831C25.4607 79.4503 25.3531 79.2926 25.2799 79.119C25.2067 78.9454 25.1693 78.7593 25.17 78.5716V71.1291C25.167 69.8912 24.6626 68.7048 23.767 67.8294C22.8714 66.9541 21.6575 66.461 20.3909 66.4581H8.31873C7.15963 66.4418 6.03075 66.0943 5.07131 65.4585C4.11186 64.8226 3.36379 63.9262 2.91936 62.8798C2.47493 61.8334 2.35357 60.6827 2.57024 59.5697C2.78691 58.4567 3.33214 57.43 4.13869 56.6162ZM55.175 32.304C55.3098 32.4396 55.4711 32.5474 55.6494 32.6211C55.8276 32.6947 56.0191 32.7326 56.2126 32.7326C56.4061 32.7326 56.5977 32.6947 56.7759 32.6211C56.9541 32.5474 57.1154 32.4396 57.2503 32.304C57.9475 31.6896 58.8406 31.3298 59.7783 31.2856C60.7159 31.2413 61.6403 31.5153 62.3949 32.0612C62.713 32.268 63.1013 32.345 63.4767 32.2759C63.8522 32.2067 64.1851 31.9969 64.4045 31.6911C64.6238 31.3854 64.7122 31.0079 64.6507 30.6394C64.5893 30.2708 64.3828 29.9403 64.0755 29.7185C62.7603 28.7749 61.1467 28.315 59.5187 28.4195C57.8907 28.524 56.3526 29.1863 55.175 30.2899C55.0394 30.422 54.9319 30.579 54.8586 30.7518C54.7852 30.9246 54.7474 31.1099 54.7474 31.297C54.7474 31.4841 54.7852 31.6693 54.8586 31.8421C54.932 32.0149 55.0394 32.1719 55.175 32.304ZM64.3972 62.1157C64.7803 62.109 65.1454 61.9555 65.4138 61.6883C65.6823 61.4212 65.8328 61.0617 65.8327 60.6872C65.8327 60.3127 65.6823 59.9532 65.4138 59.686C65.1453 59.4189 64.7802 59.2655 64.3971 59.2588C64.014 59.2655 63.6489 59.4189 63.3804 59.6861C63.112 59.9533 62.9615 60.3128 62.9615 60.6873C62.9616 61.0617 63.112 61.4213 63.3805 61.6884C63.649 61.9555 64.0141 62.109 64.3972 62.1157ZM8.3187 62.1157C8.70179 62.109 9.06687 61.9555 9.33536 61.6883C9.60385 61.4212 9.75428 61.0617 9.75427 60.6872C9.75426 60.3127 9.60381 59.9532 9.33531 59.6861C9.0668 59.4189 8.70172 59.2655 8.31863 59.2588C7.93554 59.2655 7.57046 59.4189 7.30197 59.6861C7.03348 59.9533 6.88305 60.3128 6.88306 60.6873C6.88307 61.0617 7.03352 61.4212 7.30202 61.6884C7.57052 61.9555 7.93561 62.109 8.3187 62.1157Z" fill="#FFF9F0"/>
<path d="M8.31871 69.3148H14.2379V78.5712C14.2367 78.9497 14.0824 79.3124 13.8085 79.58C13.5347 79.8477 13.1636 79.9985 12.7763 79.9996H3.89028C3.50301 79.9985 3.13193 79.8477 2.85808 79.58C2.58424 79.3124 2.42989 78.9497 2.42875 78.5712V67.0864C4.03973 68.52 6.14001 69.3146 8.31871 69.3148Z" fill="#FFF9F0"/>
<path d="M68.8549 68.1009C69.3769 67.8025 69.8666 67.4531 70.3164 67.0581V78.5714C70.3153 78.9499 70.1609 79.3126 69.8871 79.5802C69.6132 79.8479 69.2422 79.9987 68.8549 79.9998H59.9542C59.5669 79.9987 59.1959 79.8479 58.922 79.5802C58.6482 79.3126 58.4938 78.9499 58.4927 78.5714V69.315C61.4511 69.2247 66.2714 69.8264 68.8549 68.1009Z" fill="#FFF9F0"/>
</svg>
