<svg width="160" height="140" viewBox="0 0 160 140" fill="none" xmlns="http://www.w3.org/2000/svg">
<g clip-path="url(#clip0_1141_18179)">
<path d="M160.032 38.4066V122.965C151.21 128.381 140.874 131.312 130.152 129.317C114.867 126.47 102.891 115.132 98.7252 102.604C95.837 93.9089 96.9634 85.4982 98.032 77.5425C98.8664 71.3394 100.554 64.252 102.342 60.2693C108.905 45.6458 132.536 37.7966 160.032 38.4066Z" fill="#362F22"/>
<mask id="mask0_1141_18179" style="mask-type:luminance" maskUnits="userSpaceOnUse" x="96" y="38" width="65" height="92">
<path d="M160.032 38.4066V122.965C151.21 128.381 140.874 131.312 130.152 129.317C114.867 126.47 102.891 115.132 98.7251 102.604C95.8369 93.9089 96.9633 85.4982 98.032 77.5425C98.8663 71.3394 100.554 64.252 102.342 60.2693C108.904 45.6458 132.536 37.7966 160.032 38.4066Z" fill="white"/>
</mask>
<g mask="url(#mask0_1141_18179)">
<path d="M155 41.9181C158.782 43.1842 162.327 45.0779 165.488 47.5209" stroke="#48638D" stroke-width="1.33335" stroke-linecap="round" stroke-linejoin="round"/>
<path d="M153.2 44.7195C157.19 46.901 160.442 50.2293 162.542 54.2792" stroke="#48638D" stroke-width="1.33335" stroke-linecap="round" stroke-linejoin="round"/>
<path d="M146.153 55.5959C149.59 56.0512 152.829 57.4769 155.494 59.7077C160.854 64.2455 161.717 70.4292 161.884 71.901" stroke="#48638D" stroke-width="1.33335" stroke-linecap="round" stroke-linejoin="round"/>
<path d="M143.858 64.4973C147.598 65.7674 151.174 67.4825 154.509 69.6063C159.645 72.8848 164.144 77.0768 167.785 81.9771" stroke="#2E271A" stroke-width="4.00005" stroke-linecap="round" stroke-linejoin="round"/>
<path d="M150.905 68.9446C155.647 72.624 159.793 77.0203 163.196 81.977" stroke="#2E271A" stroke-width="2.6667" stroke-linecap="round" stroke-linejoin="round"/>
<path d="M157.869 80.9766C162.185 92.4727 156.12 105.382 144.843 109.323C133.364 113.332 120.454 106.67 116.985 94.6544" stroke="#2E271A" stroke-width="2.6667" stroke-linecap="round" stroke-linejoin="round"/>
<path d="M107.958 93.4942C113.214 102.557 120.95 109.908 130.246 114.671C139.541 119.434 150.002 121.407 160.382 120.356" stroke="#2E271A" stroke-width="4.00005" stroke-linecap="round" stroke-linejoin="round"/>
<path d="M99.2867 95.7324C99.9125 98.3789 103.568 112.631 117.64 121.023C134.221 130.915 151.236 124.298 153.2 123.495" stroke="#2E271A" stroke-width="2.6667" stroke-linecap="round" stroke-linejoin="round"/>
<path d="M99.9414 90.1747C104.81 99.6828 111.173 107.926 120.159 113.754C127.976 118.838 136.955 121.5 146.153 122.885C143.62 123.579 141.008 123.941 138.383 123.963C130.29 124.074 122.365 121.625 115.73 116.962C107.027 110.859 100.721 100.903 99.9414 90.1747Z" fill="#48638D"/>
<path d="M137.632 70.1C140.124 71.5888 142.076 73.8406 143.203 76.5259C143.73 77.8168 145.45 82.0964 143.348 84.3976C141.127 86.8343 136.362 85.1754 135.665 84.9301C133.302 84.068 131.286 82.4472 129.931 80.3181" stroke="#48638D" stroke-width="1.33335" stroke-linecap="round" stroke-linejoin="round"/>
<path d="M126.654 81.9771C127.682 84.983 129.492 87.6575 131.895 89.7229C137.324 94.3446 143.749 93.9637 145.167 93.8443" stroke="#48638D" stroke-width="1.33335" stroke-linecap="round" stroke-linejoin="round"/>
</g>
<path d="M96.973 90.6072C94.6008 95.3996 93.6526 100.778 94.2421 106.099C95.5 116.895 102.839 123.204 104.511 124.557" stroke="#362F22" stroke-width="2.6667" stroke-linecap="round" stroke-linejoin="round"/>
<path d="M159.515 15.0238C158.617 24.8191 156.431 45.6328 141.134 65.2847C136.74 70.9263 118.009 94.9771 92.4096 95.6484C77.4872 96.0389 62.8248 88.4093 50.9511 76.542C39.7552 65.247 31.5854 51.2848 27.2036 35.957C25.4755 29.8767 24.5054 23.604 24.3154 17.283C24.2641 15.2282 24.3047 13.1842 24.4374 11.1509C24.6834 7.39731 25.222 3.66892 26.0484 0.00012207L160 0.00012207C160.117 5.0132 159.956 10.029 159.515 15.0238Z" fill="#3E3525"/>
<path d="M138.493 21.9725C138.493 56.3705 112.056 84.262 79.4448 84.262C69.4368 84.2666 59.6064 81.604 50.9543 76.5452C36.9529 68.3992 26.4238 54.4308 22.3001 37.7321C20.1122 28.8307 19.8007 19.5674 21.3855 10.5377C22.0133 6.95198 22.9441 3.42667 24.1678 0.00012207L134.715 0.00012207C137.226 7.05 138.504 14.484 138.493 21.9725Z" fill="#ECB497"/>
<path d="M106.222 0.00012207C105.772 3.37951 104.119 6.47998 101.568 8.72555C99.0167 10.9711 95.742 12.2091 92.3519 12.2095C88.9627 12.2082 85.6892 10.9698 83.1394 8.72422C80.5897 6.47867 78.937 3.37868 78.4885 0.00012207H106.222Z" fill="#FF4F28"/>
<path d="M13.751 63.7581C14.7138 64.6586 25.1113 74.0698 38.6088 71.0747C50.1616 68.5154 59.0733 57.9584 60.2094 44.9712L13.751 63.7581Z" fill="#E68952"/>
<path d="M79.4416 34.0948C80.0834 34.595 94.5629 45.6587 111.337 39.0392C123.114 34.3885 131.144 22.944 131.737 9.92126L79.4416 34.0948Z" fill="#E68952"/>
<path d="M60.2094 44.9712C58.5471 47.8598 52.0999 58.2683 38.6859 63.0675C36.1446 63.9786 33.5178 64.6274 30.846 65.0039C25.1239 65.7957 19.3004 65.3724 13.751 63.7614C17.0749 58.7914 21.3451 54.5331 26.3147 51.2324C28.0208 50.1006 29.8042 49.0912 31.6515 48.2116C44.4687 42.102 56.3167 44.1289 60.2094 44.9712Z" fill="#FFFEEF"/>
<path d="M32.6238 59.8529C32.6151 61.7246 31.9899 63.5405 30.846 65.0168C25.1239 65.8086 19.3004 65.3853 13.751 63.7743C17.0736 58.7997 21.3438 54.5369 26.3147 51.2325C30.0533 52.8397 32.6238 56.0994 32.6238 59.8529Z" fill="#3C3623"/>
<path d="M131.737 9.92126C130.155 13.1745 123.551 25.7648 108.388 32.1164C107.926 32.3068 107.47 32.4907 107.014 32.6618C94.287 37.5029 83.1289 35.063 79.4416 34.0948C85.77 26.9717 93.4344 21.1752 101.995 17.0378L102.159 16.9571C111.411 12.53 121.493 10.1317 131.737 9.92126Z" fill="#FFFEEF"/>
<path d="M107.403 29.0826C107.405 30.2864 107.274 31.4867 107.014 32.6618C94.2869 37.503 83.1289 35.063 79.4416 34.0948C85.77 26.9717 93.4344 21.1752 101.995 17.0378L102.159 16.9571C103.812 18.5095 105.13 20.3867 106.032 22.4725C106.934 24.5583 107.401 26.8081 107.403 29.0826Z" fill="#3C3623"/>
<path d="M20.2463 37.7361C27.7699 37.7361 33.869 31.6359 33.869 24.1111C33.869 16.5862 27.7699 10.4861 20.2463 10.4861C12.7227 10.4861 6.6236 16.5862 6.6236 24.1111C6.6236 31.6359 12.7227 37.7361 20.2463 37.7361Z" fill="#FF4F28"/>
<path d="M52.5396 17.58C52.2882 17.1758 52.1782 16.6988 52.227 16.2247C52.2759 15.7505 52.4807 15.3063 52.8092 14.9625C53.8118 13.9004 55.0607 13.105 56.4441 12.6477C57.8274 12.1903 59.302 12.0852 60.7357 12.3419C61.1257 12.4084 61.4895 12.5829 61.7865 12.8457C62.0835 13.1084 62.3019 13.4492 62.4172 13.8297C65.6264 24.4738 68.844 35.1179 72.0703 45.762C72.0897 45.9365 72.057 46.1128 71.9765 46.2686C71.8959 46.4243 71.771 46.5525 71.6178 46.6366C71.4532 46.7222 71.2658 46.7527 71.0828 46.7236C70.8998 46.6946 70.7309 46.6076 70.6005 46.4752L52.5396 17.58Z" fill="#E68952"/>
<path d="M74.4515 85.695C85.7893 87.2507 95.5289 84.8817 105.734 80.018C107.127 79.3725 108.497 78.6495 109.886 77.9363C109.901 77.9282 109.919 77.9264 109.935 77.9312C109.951 77.9361 109.965 77.9472 109.973 77.9621C109.98 77.9754 109.982 77.9906 109.979 78.0052C109.976 78.0197 109.968 78.033 109.957 78.0428C108.767 79.0652 107.498 79.9922 106.164 80.8151C99.5082 85.0302 91.4886 86.6245 83.7001 86.7375C80.5845 86.7346 77.4764 86.4288 74.4194 85.8241C74.4026 85.8203 74.3879 85.8101 74.3784 85.7957C74.3688 85.7813 74.3651 85.7637 74.368 85.7467C74.3724 85.7308 74.3822 85.7169 74.3957 85.7075C74.4092 85.6981 74.4255 85.6937 74.4418 85.695H74.4515Z" fill="#4973A5"/>
<mask id="mask1_1141_18179" style="mask-type:luminance" maskUnits="userSpaceOnUse" x="24" y="0" width="136" height="96">
<path d="M159.221 15.0237C158.323 24.819 156.137 45.6327 140.84 65.2846C136.446 70.9262 117.715 94.977 92.1157 95.6483C77.1933 96.0388 62.5309 88.4092 50.6571 76.5419C39.4612 65.2469 31.2915 51.2847 26.9097 35.9569C25.1816 29.8766 24.2114 23.6039 24.0215 17.2829C23.9701 15.2281 24.0108 13.1841 24.1434 11.1508C24.3894 7.39719 24.9281 3.6688 25.7544 0L159.706 0C159.824 5.01308 159.662 10.0288 159.221 15.0237Z" fill="white"/>
</mask>
<g mask="url(#mask1_1141_18179)">
<path d="M150.113 -14.8816C158.951 2.63371 157.831 24.6029 148.874 41.86C147.582 44.3312 146.072 46.6806 144.362 48.8796C145.591 43.435 146.9 38.2291 147.892 32.9716C150.412 19.9241 151.307 6.6118 150.556 -6.65808C150.443 -9.04316 150.235 -12.4965 150.126 -14.8816H150.113Z" fill="#4973A5"/>
</g>
</g>
<defs>
<clipPath id="clip0_1141_18179">
<rect width="160" height="140" fill="white"/>
</clipPath>
</defs>
</svg>
