<svg width="200" height="200" viewBox="0 0 200 200" fill="none" xmlns="http://www.w3.org/2000/svg">
<circle cx="100" cy="100" r="100" fill="#F1A600"/>
<path fill-rule="evenodd" clip-rule="evenodd" d="M0 100C55.2285 100 100 55.2285 100 0C100 55.2285 144.772 100 200 100C144.772 100 100 144.772 100 200C100 144.772 55.2285 100 0 100Z" fill="#EC5C1F"/>
<path d="M100 100C100 85.6406 111.641 74 126 74V74V74C126 88.3594 114.359 100 100 100V100V100Z" fill="#F1A600"/>
<path d="M74 126C74 111.641 85.6406 100 100 100V100V100C100 114.359 88.3594 126 74 126V126V126Z" fill="#F1A600"/>
<path d="M100 100C100 85.6406 88.3594 74 74 74V74V74C74 88.3594 85.6406 100 100 100V100V100Z" fill="#F1A600"/>
<path d="M126 126C126 111.641 114.359 100 100 100V100V100C100 114.359 111.641 126 126 126V126V126Z" fill="#F1A600"/>
<path d="M100 0C113.132 0 126.136 2.58658 138.268 7.61205C150.401 12.6375 161.425 20.0035 170.711 29.2893C179.997 38.5752 187.362 49.5991 192.388 61.7317C197.413 73.8642 200 86.8678 200 100C200 113.132 197.413 126.136 192.388 138.268C187.362 150.401 179.997 161.425 170.711 170.711C161.425 179.997 150.401 187.362 138.268 192.388C126.136 197.413 113.132 200 100 200L100 100L100 0Z" fill="white" fill-opacity="0.2"/>
</svg>
