<svg width="80" height="80" viewBox="0 0 80 80" fill="none" xmlns="http://www.w3.org/2000/svg">
<path d="M11.143 22.5519L13.246 28.0276L6.83324 31.8327L4.73106 35.4523L6.83324 38.6077L3.57456 42.2272L2.52334 46.7747L0.63162 49.7446L0 51.4152L0.63162 57.262L4.73106 56.4268L5.99247 55.0347L8.62058 56.4268L8.09491 58.0045L9.98715 64.1298L8.62058 68.399V71.74L5.99247 77.2157L11.143 80L16.9249 78.3294H21.2348L19.1325 71.0904L20.2887 68.399L19.1325 62.2736L20.2887 59.7679V53.6425L17.8709 50.9511L22.3912 46.7747L27.6471 47.4244L28.5932 50.9511L24.5986 55.0347L29.7496 60.6031L33.9544 62.2736L30.8008 66.7284L33.9544 71.0904H40.6821V67.4709L43.0998 66.7284L46.4636 68.399L51.2992 66.7284L51.9299 64.1298L48.7764 63.573L48.2507 60.6031L42.4691 58.0045V56.4268L44.4663 52.8073L42.4691 51.4152L43.0998 49.7446L39.0002 46.7747L37.6336 43.248L33.9544 42.2272L33.2186 39.7213H37.0029V38.1437L39.5257 36.6588H43.0998L47.3046 32.3896L51.2992 31.8327L58.7627 31.1831L56.8705 25.893H49.3019L41.523 28.0276L39.0002 29.0485L35.9517 26.4499L32.1673 29.0485L28.5932 33.5032L24.0731 32.3896L24.5986 29.9766L20.2887 28.0276L19.658 19.4892L22.3912 14.6633H28.5932H37.0029H41.523L51.9299 13.828L54.2425 16.3339H62.1266L70.5362 14.6633L71.7976 11.879L75.4768 9.55899L79.156 5.38252L79.997 1.11332L76.0024 0L74.6359 2.6912L71.7976 3.80464L71.272 5.84662L68.6441 6.31061L63.0726 9.55899L51.9299 8.1668L51.2992 9.55899L40.7871 7.14574L39.5257 6.31061L34.9005 7.14574L31.011 3.80464H24.5986V7.14574L21.6553 10.3015H16.5044L13.246 16.3339L11.143 22.5519Z" fill="#C1B8AB"/>
<path d="M0.244853 50.7676L0 51.4153L0.63162 57.2621L4.73106 56.4269L5.99247 55.0347L8.48429 56.3547L8.09569 55.0965L8.62124 53.5187L5.99313 52.1266L4.73185 53.5187L0.632274 54.3541L0.244853 50.7676Z" fill="#C1B8AB"/>
<path d="M8.56146 56.604L8.09491 58.0043L9.53028 62.6509L9.98781 61.2215L8.56146 56.604Z" fill="#C1B8AB"/>
<path d="M7.10093 74.9058L5.99255 77.2151L11.1431 79.9992L16.925 78.3287H21.2349L20.3903 75.4207H16.9258L11.1439 77.0912L7.10093 74.9058Z" fill="#C1B8AB"/>
<path d="M17.9313 50.8956L22.3912 46.7748L27.6471 47.4244L28.5932 50.9511L24.5987 55.0346L29.7496 60.6032L33.9057 62.2543L35.9524 61.2217L32.168 58.3635L25.7348 53.9883L29.8202 49.8992L27.6479 44.5164L22.3918 43.8667L16.8702 49.8992L17.9313 50.8956Z" fill="#C1B8AB"/>
<path d="M31.8413 65.2583L30.8008 66.7281L33.9545 71.09H40.6822V68.182H33.9551L31.8413 65.2583Z" fill="#C1B8AB"/>
<path d="M40.6827 67.4712L43.0997 66.7289L46.4636 68.3994L51.2992 66.7289L51.9299 64.1303L50.9201 63.952L46.4644 65.4913L43.1005 63.8208L40.6827 64.5632V67.4712Z" fill="#C1B8AB"/>
<path d="M35.405 39.7214H37.0029V38.1436L39.5258 36.6587H43.0998L47.3047 32.3896L51.2992 31.8328L58.7628 31.1831L57.7539 28.3628L51.2999 28.9246L47.3053 29.4814L43.1006 33.7506H39.5264L37.0036 35.2355V36.8133H33.2192L33.9551 39.3191L35.405 39.7214Z" fill="#C1B8AB"/>
<path d="M19.8487 19.1524L22.3912 14.663H41.523L51.9299 13.8277L54.2425 16.3337H62.1266L70.5362 14.663L71.7976 11.8788L75.4768 9.55863L79.156 5.38228L79.997 1.11307L79.4546 0.961914L79.1568 2.47409L75.4776 6.65056L71.7984 8.97062L70.5368 11.7549L62.1272 13.4255H54.2433L51.9307 10.9196L41.5238 11.7549H22.3918L19.6587 16.5809L19.8487 19.1524Z" fill="#C1B8AB"/>
</svg>
