<svg width="500" height="366" viewBox="0 0 500 366" fill="none" xmlns="http://www.w3.org/2000/svg">
<g clip-path="url(#clip0_73_788)">
<path fill-rule="evenodd" clip-rule="evenodd" d="M406.001 31.8197L428.29 31.8197C431.864 31.8197 434.788 34.7433 434.788 38.3175L434.788 167.077L399.504 167.076L399.504 38.3175C399.504 34.7438 402.427 31.8202 406.001 31.8197Z" fill="#F1A600"/>
<path d="M412.625 168.084C413.182 166.172 412.084 164.171 410.172 163.615C408.26 163.058 406.259 164.157 405.703 166.069L371.09 285.008C362.175 315.639 369.644 337.225 383.608 349.639C392.896 357.896 405.032 362.025 417.145 362.025C429.258 362.025 441.394 357.896 450.683 349.639C464.647 337.225 472.115 315.639 463.201 285.008L428.588 166.068C428.031 164.157 426.03 163.058 424.119 163.615C422.208 164.171 421.109 166.172 421.665 168.084L456.278 287.022C464.276 314.503 457.947 333.538 445.895 344.252C437.983 351.286 427.575 354.803 417.145 354.803C406.715 354.803 396.308 351.287 388.396 344.253C376.344 333.538 370.015 314.502 378.012 287.022L412.625 168.084Z" fill="#F1A600"/>
<path d="M415.772 167.715C416.125 165.754 414.821 163.878 412.859 163.525C410.898 163.173 409.022 164.477 408.669 166.438L387.312 285.377C381.246 319.154 387.741 341.815 398.304 353.149C403.819 359.066 410.455 362.025 417.145 362.025C423.835 362.025 430.471 359.066 435.986 353.149C446.55 341.815 453.044 319.155 446.979 285.376L425.621 166.438C425.269 164.477 423.393 163.173 421.432 163.525C419.471 163.878 418.166 165.753 418.519 167.715L439.877 286.653C445.486 317.888 439.94 338.349 430.72 348.242C426.643 352.616 421.867 354.803 417.145 354.803C412.424 354.803 407.648 352.616 403.571 348.242C394.351 338.349 388.805 317.887 394.414 286.653L415.772 167.715Z" fill="#F1A600"/>
<path d="M416.309 205.253L409.275 287.804C406.46 320.856 409.476 341.757 414.157 350.977C415.514 353.647 416.69 354.97 417.571 354.956C418.467 354.941 419.644 353.563 420.981 350.834C425.569 341.463 428.301 320.451 424.908 287.863L416.309 205.253ZM402.113 287.185L412.343 167.119C412.319 165.273 413.707 163.679 415.58 163.484C417.564 163.278 419.339 164.719 419.546 166.703L415.954 167.077L419.535 166.707L432.07 287.126C435.617 321.198 432.517 343.665 427.445 354.026C424.824 359.378 421.402 362.098 417.671 362.158C413.925 362.218 410.446 359.591 407.734 354.249C402.564 344.068 399.169 321.741 402.113 287.185Z" fill="#F1A600"/>
<path fill-rule="evenodd" clip-rule="evenodd" d="M404.951 14.2245L404.951 36.245C405.293 36.1888 405.643 31.9603 406 31.9603L428.29 31.9603C428.647 31.9603 428.997 31.9895 429.34 32.0457L429.34 14.2245C429.34 7.51808 423.852 2.03016 417.145 2.03015C410.438 2.03014 404.951 7.51764 404.951 14.2245Z" fill="#F1A600"/>
<mask id="mask0_73_788" style="mask-type:alpha" maskUnits="userSpaceOnUse" x="367" y="2" width="101" height="361">
<path fill-rule="evenodd" clip-rule="evenodd" d="M406.001 31.8197L428.29 31.8197C431.864 31.8197 434.788 34.7433 434.788 38.3175L434.788 167.077L399.504 167.076L399.504 38.3175C399.504 34.7438 402.427 31.8202 406.001 31.8197Z" fill="#F1A600"/>
<path d="M412.625 168.084C413.182 166.172 412.084 164.171 410.172 163.615C408.26 163.058 406.259 164.157 405.703 166.069L371.09 285.008C362.175 315.639 369.644 337.225 383.608 349.639C392.896 357.896 405.032 362.025 417.145 362.025C429.258 362.025 441.394 357.896 450.683 349.639C464.647 337.225 472.115 315.639 463.201 285.008L428.588 166.068C428.031 164.157 426.03 163.058 424.119 163.615C422.208 164.171 421.109 166.172 421.665 168.084L456.278 287.022C464.276 314.503 457.947 333.538 445.895 344.252C437.983 351.286 427.575 354.803 417.145 354.803C406.715 354.803 396.308 351.287 388.396 344.253C376.344 333.538 370.015 314.502 378.012 287.022L412.625 168.084Z" fill="#F1A600"/>
<path d="M415.772 167.715C416.125 165.754 414.821 163.878 412.859 163.525C410.898 163.173 409.022 164.477 408.669 166.438L387.312 285.377C381.246 319.154 387.741 341.815 398.304 353.149C403.819 359.066 410.455 362.025 417.145 362.025C423.835 362.025 430.471 359.066 435.986 353.149C446.55 341.815 453.044 319.155 446.979 285.376L425.621 166.438C425.269 164.477 423.393 163.173 421.432 163.525C419.471 163.878 418.166 165.753 418.519 167.715L439.877 286.653C445.486 317.888 439.94 338.349 430.72 348.242C426.643 352.616 421.867 354.803 417.145 354.803C412.424 354.803 407.648 352.616 403.571 348.242C394.351 338.349 388.805 317.887 394.414 286.653L415.772 167.715Z" fill="#F1A600"/>
<path d="M416.309 205.253L409.275 287.804C406.46 320.856 409.476 341.757 414.157 350.977C415.514 353.647 416.69 354.97 417.571 354.956C418.467 354.941 419.644 353.563 420.981 350.834C425.569 341.463 428.301 320.451 424.908 287.863L416.309 205.253ZM402.113 287.185L412.343 167.119C412.319 165.273 413.707 163.679 415.58 163.484C417.564 163.278 419.339 164.719 419.546 166.703L415.954 167.077L419.535 166.707L432.07 287.126C435.617 321.198 432.517 343.665 427.445 354.026C424.824 359.378 421.402 362.098 417.671 362.158C413.925 362.218 410.446 359.591 407.734 354.249C402.564 344.068 399.169 321.741 402.113 287.185Z" fill="#F1A600"/>
<path fill-rule="evenodd" clip-rule="evenodd" d="M404.951 14.2245L404.951 36.245C405.293 36.1888 405.643 31.9603 406 31.9603L428.29 31.9603C428.647 31.9603 428.997 31.9895 429.34 32.0457L429.34 14.2245C429.34 7.51808 423.852 2.03016 417.145 2.03015C410.438 2.03014 404.951 7.51764 404.951 14.2245Z" fill="#F1A600"/>
</mask>
<g mask="url(#mask0_73_788)">
<rect x="416.301" y="-3" width="51.0187" height="375.445" fill="white" fill-opacity="0.3"/>
</g>
<circle cx="323" cy="205" r="45" fill="#F1A600"/>
<path fill-rule="evenodd" clip-rule="evenodd" d="M278 205C302.853 205 323 184.853 323 160C323 184.853 343.147 205 368 205C343.147 205 323 225.147 323 250C323 225.147 302.853 205 278 205Z" fill="#EC5C1F"/>
<path d="M323 205C323 198.538 328.238 193.3 334.7 193.3V193.3V193.3C334.7 199.762 329.462 205 323 205V205V205Z" fill="#F1A600"/>
<path d="M311.3 216.7C311.3 210.238 316.538 205 323 205V205V205C323 211.462 317.762 216.7 311.3 216.7V216.7V216.7Z" fill="#F1A600"/>
<path d="M323 205C323 198.538 317.762 193.3 311.3 193.3V193.3V193.3C311.3 199.762 316.538 205 323 205V205V205Z" fill="#F1A600"/>
<path d="M334.7 216.7C334.7 210.238 329.462 205 323 205V205V205C323 211.462 328.238 216.7 334.7 216.7V216.7V216.7Z" fill="#F1A600"/>
<path d="M323 160C328.909 160 334.761 161.164 340.221 163.425C345.68 165.687 350.641 169.002 354.82 173.18C358.998 177.359 362.313 182.32 364.575 187.779C366.836 193.239 368 199.091 368 205C368 210.909 366.836 216.761 364.575 222.221C362.313 227.68 358.998 232.641 354.82 236.82C350.641 240.998 345.68 244.313 340.221 246.575C334.761 248.836 328.909 250 323 250L323 205V160Z" fill="white" fill-opacity="0.2"/>
</g>
<defs>
<clipPath id="clip0_73_788">
<rect width="500" height="366" fill="white"/>
</clipPath>
</defs>
</svg>
