<svg width="500" height="659" viewBox="0 0 500 659" fill="none" xmlns="http://www.w3.org/2000/svg">
<g clip-path="url(#clip0_73_664)">
<path d="M496.788 84C462.476 84 434.663 111.789 434.663 146.125V456.75H269V477.456C269 534.649 315.351 581 372.538 581C429.73 581 476.081 534.649 476.081 477.456V146.125C476.081 134.675 485.344 125.419 496.788 125.419C508.219 125.419 517.5 134.675 517.5 146.125V187.544H558.913V146.125C558.913 111.789 531.087 84 496.788 84Z" fill="#FFA4B5"/>
<mask id="mask0_73_664" style="mask-type:alpha" maskUnits="userSpaceOnUse" x="269" y="84" width="290" height="497">
<path d="M496.788 84C462.476 84 434.663 111.789 434.663 146.125V456.75H269V477.456C269 534.649 315.351 581 372.538 581C429.73 581 476.081 534.649 476.081 477.456V146.125C476.081 134.675 485.344 125.419 496.788 125.419C508.219 125.419 517.5 134.675 517.5 146.125V187.544H558.913V146.125C558.913 111.789 531.087 84 496.788 84Z" fill="#FFA4B5"/>
</mask>
<g mask="url(#mask0_73_664)">
<rect x="372.137" y="53.6655" width="202.634" height="532.673" fill="white" fill-opacity="0.2"/>
<rect x="372.137" y="446.8" width="19.4141" height="70.376" rx="9.70703" fill="white" fill-opacity="0.12"/>
<rect x="372.137" y="522.03" width="19.4141" height="19.4141" rx="9.70703" fill="white" fill-opacity="0.12"/>
</g>
<path d="M426.133 494.729C426.133 482.331 436.183 472.281 448.58 472.281V472.281V472.281C448.58 484.679 438.53 494.729 426.133 494.729V494.729V494.729Z" fill="#F15533"/>
<path d="M403.685 517.176C403.685 504.779 413.735 494.729 426.133 494.729V494.729V494.729C426.133 507.126 416.083 517.176 403.685 517.176V517.176V517.176Z" fill="#F15533"/>
<path d="M426.133 494.729C426.133 482.331 416.082 472.281 403.685 472.281V472.281V472.281C403.685 484.679 413.735 494.729 426.133 494.729V494.729V494.729Z" fill="#F15533"/>
<path d="M448.58 517.176C448.58 504.779 438.53 494.729 426.133 494.729V494.729V494.729C426.133 507.126 436.183 517.176 448.58 517.176V517.176V517.176Z" fill="#F15533"/>
<ellipse cx="291.997" cy="346" rx="56.9968" ry="57" fill="#F15533"/>
<path fill-rule="evenodd" clip-rule="evenodd" d="M291.997 289.146C291.918 320.529 266.479 345.951 235.091 346C266.479 346.049 291.918 371.471 291.997 402.853C292.076 371.471 317.515 346.049 348.903 346C317.515 345.951 292.076 320.529 291.997 289.146Z" fill="#FBA8B7"/>
<path d="M292 346C292 337.815 298.635 331.18 306.82 331.18V331.18V331.18C306.82 339.365 300.185 346 292 346V346V346Z" fill="#F15533"/>
<path d="M277.18 360.82C277.18 352.635 283.815 346 292 346V346V346C292 354.185 285.365 360.82 277.18 360.82V360.82V360.82Z" fill="#F15533"/>
<path d="M292 346C292 337.815 285.365 331.18 277.18 331.18V331.18V331.18C277.18 339.365 283.815 346 292 346V346V346Z" fill="#F15533"/>
<path d="M306.82 360.82C306.82 352.635 300.185 346 292 346V346V346C292 354.185 298.635 360.82 306.82 360.82V360.82V360.82Z" fill="#F15533"/>
<path d="M292 289C299.485 289 306.897 290.474 313.813 293.339C320.729 296.203 327.012 300.402 332.305 305.695C337.598 310.988 341.797 317.271 344.661 324.187C347.526 331.103 349 338.515 349 346C349 353.485 347.526 360.897 344.661 367.813C341.797 374.729 337.598 381.012 332.305 386.305C327.012 391.598 320.729 395.797 313.813 398.661C306.897 401.526 299.485 403 292 403L292 346V289Z" fill="white" fill-opacity="0.2"/>
<path d="M125 518.827C125 487.006 139.131 463.139 156.655 450.456C168.393 441.888 174.846 427.758 174.846 413.182V355.881C174.846 257.19 155.265 204.117 155.265 170.961C155.265 149.988 162.997 119 185.473 119C209.561 119 215.736 149.988 215.736 170.961C215.736 203.45 196.154 249.68 196.154 352.766V413.182C196.154 427.758 202.607 441.888 214.345 450.456C231.814 463.14 246 487.006 246 518.827C246 569.841 216.348 640.883 185.473 640.883C154.652 640.883 125 569.841 125 518.827Z" fill="#4973A5"/>
<mask id="mask1_73_664" style="mask-type:alpha" maskUnits="userSpaceOnUse" x="125" y="119" width="121" height="522">
<path d="M125 518.827C125 487.006 139.131 463.139 156.655 450.456C168.393 441.888 174.846 427.758 174.846 413.182V355.881C174.846 257.19 155.265 204.117 155.265 170.961C155.265 149.988 162.997 119 185.473 119C209.561 119 215.736 149.988 215.736 170.961C215.736 203.45 196.154 249.68 196.154 352.766V413.182C196.154 427.758 202.607 441.888 214.345 450.456C231.814 463.14 246 487.006 246 518.827C246 569.841 216.348 640.883 185.473 640.883C154.652 640.883 125 569.841 125 518.827Z" fill="#4973A5"/>
</mask>
<g mask="url(#mask1_73_664)">
<rect x="185.261" y="119" width="60.2615" height="522.947" fill="white" fill-opacity="0.2"/>
<rect x="166.877" y="536.745" width="12.2566" height="59.2401" rx="6.12829" fill="white" fill-opacity="0.12"/>
<rect x="166.877" y="600.071" width="12.2566" height="12.2566" rx="6.12829" fill="white" fill-opacity="0.12"/>
</g>
<path d="M24.767 428.441C23.187 408.233 23.079 376.425 34.19 360.03C48.46 339.006 54.343 313.351 54.343 287.97L54.343 227.511C54.343 149.786 35.17 98.0969 35.17 64.8729C35.17 44.3389 42.796 13.9999 64.8 13.9999C88.33 13.9999 94.43 44.3389 94.43 64.8729C94.43 97.2259 75.257 141.944 75.257 223.808V291.348C75.257 316.348 83.591 340.205 96.445 361.665C106.576 378.604 106.413 409.106 104.779 428.659L97.044 522.07C96.826 524.303 94.974 525.991 92.796 525.991H92.033C89.691 525.991 87.785 524.085 87.785 521.742L87.785 415.313C87.785 412.644 85.606 410.466 82.937 410.466C80.268 410.466 78.089 412.644 78.089 415.313L78.089 521.743C78.089 524.085 76.183 525.992 73.841 525.992C71.499 525.992 69.538 524.086 69.538 521.743L69.538 415.314C69.538 412.645 67.414 410.467 64.69 410.467C62.021 410.467 59.843 412.645 59.843 415.314L59.843 521.743C59.843 524.085 57.936 525.992 55.594 525.992C53.252 525.992 51.346 524.086 51.346 521.743L51.346 415.314C51.346 412.645 49.167 410.467 46.498 410.467C43.829 410.467 41.65 412.645 41.65 415.314L41.65 521.743C41.65 524.085 39.744 525.992 37.347 525.992H36.639C34.46 525.992 32.608 524.303 32.39 522.071L24.767 428.441Z" fill="#F15533"/>
<mask id="mask2_73_664" style="mask-type:alpha" maskUnits="userSpaceOnUse" x="24" y="14" width="82" height="512">
<path d="M24.767 428.441C23.187 408.233 23.079 376.425 34.19 360.03C48.46 339.006 54.343 313.351 54.343 287.97L54.343 227.511C54.343 149.786 35.17 98.0969 35.17 64.8729C35.17 44.3389 42.796 13.9999 64.8 13.9999C88.33 13.9999 94.43 44.3389 94.43 64.8729C94.43 97.2259 75.257 141.944 75.257 223.808V291.348C75.257 316.348 83.591 340.205 96.445 361.665C106.576 378.604 106.413 409.106 104.779 428.659L97.044 522.07C96.826 524.303 94.974 525.991 92.796 525.991H92.033C89.691 525.991 87.785 524.085 87.785 521.742L87.785 415.313C87.785 412.644 85.606 410.466 82.937 410.466C80.268 410.466 78.089 412.644 78.089 415.313L78.089 521.743C78.089 524.085 76.183 525.992 73.841 525.992C71.499 525.992 69.538 524.086 69.538 521.743L69.538 415.314C69.538 412.645 67.414 410.467 64.69 410.467C62.021 410.467 59.843 412.645 59.843 415.314L59.843 521.743C59.843 524.085 57.936 525.992 55.594 525.992C53.252 525.992 51.346 524.086 51.346 521.743L51.346 415.314C51.346 412.645 49.167 410.467 46.498 410.467C43.829 410.467 41.65 412.645 41.65 415.314L41.65 521.743C41.65 524.085 39.744 525.992 37.347 525.992H36.639C34.46 525.992 32.608 524.303 32.39 522.071L24.767 428.441Z" fill="#F15533"/>
</mask>
<g mask="url(#mask2_73_664)">
<rect x="65" y="14" width="41" height="512" fill="white" fill-opacity="0.2"/>
<rect x="65" y="364" width="12" height="55" rx="6" fill="white" fill-opacity="0.12"/>
<rect x="65" y="348" width="12" height="12" rx="6" fill="white" fill-opacity="0.12"/>
</g>
</g>
<defs>
<clipPath id="clip0_73_664">
<rect width="500" height="659" fill="white"/>
</clipPath>
</defs>
</svg>
