<svg width="200" height="200" viewBox="0 0 200 200" fill="none" xmlns="http://www.w3.org/2000/svg">
<ellipse cx="99.9945" cy="100" rx="99.9945" ry="100" fill="#F15533"/>
<path fill-rule="evenodd" clip-rule="evenodd" d="M99.9945 0.258514C99.8551 55.3163 55.2235 99.9161 0.155762 99.9998C55.2235 100.084 99.8551 144.683 99.9945 199.741C100.134 144.683 144.766 100.083 199.834 99.9999C144.766 99.9163 100.134 55.3164 99.9945 0.258514Z" fill="#FBA8B7"/>
<path d="M100 100C100 85.6406 111.641 74 126 74V74V74C126 88.3594 114.359 100 100 100V100V100Z" fill="#F15533"/>
<path d="M74 126C74 111.641 85.6406 100 100 100V100V100C100 114.359 88.3594 126 74 126V126V126Z" fill="#F15533"/>
<path d="M100 100C100 85.6406 88.3594 74 74 74V74V74C74 88.3594 85.6406 100 100 100V100V100Z" fill="#F15533"/>
<path d="M126 126C126 111.641 114.359 100 100 100V100V100C100 114.359 111.641 126 126 126V126V126Z" fill="#F15533"/>
<path d="M100 0C113.132 0 126.136 2.58658 138.268 7.61205C150.401 12.6375 161.425 20.0035 170.711 29.2893C179.997 38.5752 187.362 49.5991 192.388 61.7317C197.413 73.8642 200 86.8678 200 100C200 113.132 197.413 126.136 192.388 138.268C187.362 150.401 179.997 161.425 170.711 170.711C161.425 179.997 150.401 187.362 138.268 192.388C126.136 197.413 113.132 200 100 200L100 100L100 0Z" fill="white" fill-opacity="0.2"/>
</svg>
