<svg width="239" height="410" viewBox="0 0 239 410" fill="none" xmlns="http://www.w3.org/2000/svg">
<path d="M187.73 0C159.452 0 136.53 22.9018 136.53 51.2V307.2H0V324.265C0 371.4 38.2003 409.6 85.3299 409.6C132.465 409.6 170.665 371.4 170.665 324.265V51.2C170.665 41.7638 178.299 34.135 187.73 34.135C197.151 34.135 204.8 41.7638 204.8 51.2V85.335H238.93V51.2C238.93 22.9018 215.997 0 187.73 0Z" fill="#FFA4B5"/>
<mask id="mask0_70_510" style="mask-type:alpha" maskUnits="userSpaceOnUse" x="0" y="0" width="239" height="410">
<path d="M187.73 0C159.452 0 136.53 22.9018 136.53 51.2V307.2H0V324.265C0 371.4 38.2003 409.6 85.3299 409.6C132.465 409.6 170.665 371.4 170.665 324.265V51.2C170.665 41.7638 178.299 34.135 187.73 34.135C197.151 34.135 204.8 41.7638 204.8 51.2V85.335H238.93V51.2C238.93 22.9018 215.997 0 187.73 0Z" fill="black"/>
</mask>
<g mask="url(#mask0_70_510)">
<rect x="85" y="-25" width="167" height="439" fill="white" fill-opacity="0.2"/>
<rect x="85" y="299" width="16" height="58" rx="8" fill="white" fill-opacity="0.12"/>
<rect x="85" y="361" width="16" height="16" rx="8" fill="white" fill-opacity="0.12"/>
</g>
<path d="M129.5 338.5C129.5 328.283 137.783 320 148 320V320V320C148 330.217 139.717 338.5 129.5 338.5V338.5V338.5Z" fill="#F15533"/>
<path d="M111 357C111 346.783 119.283 338.5 129.5 338.5V338.5V338.5C129.5 348.717 121.217 357 111 357V357V357Z" fill="#F15533"/>
<path d="M129.5 338.5C129.5 328.283 121.217 320 111 320V320V320C111 330.217 119.283 338.5 129.5 338.5V338.5V338.5Z" fill="#F15533"/>
<path d="M148 357C148 346.783 139.717 338.5 129.5 338.5V338.5V338.5C129.5 348.717 137.783 357 148 357V357V357Z" fill="#F15533"/>
</svg>
