<svg width="80" height="80" viewBox="0 0 80 80" fill="none" xmlns="http://www.w3.org/2000/svg">
<path d="M45.0081 7.80438C45.0081 6.45875 44.5222 5.15813 43.6397 4.14219L40.0417 0H39.9583L36.3603 4.14219C35.4778 5.15813 34.9919 6.45859 34.9919 7.80438C34.9919 10.5703 37.2341 12.8125 40 12.8125C42.7659 12.8125 45.0081 10.5703 45.0081 7.80438Z" fill="#FFF9F0"/>
<path d="M51.4969 75.3125C52.4644 72.5847 55.0695 70.625 58.125 70.625V65.9375H44.6186L43.1939 17.5H47.0312V12.8125H40H32.9688V17.5H36.8061L35.3814 65.9375H21.875V70.625C24.9305 70.625 27.5356 72.5847 28.5031 75.3125H18.75V80H61.25V75.3125H51.4969Z" fill="#FFF9F0"/>
</svg>
