<svg width="80" height="80" viewBox="0 0 80 80" fill="none" xmlns="http://www.w3.org/2000/svg">
<path d="M53.775 63.7501H55V44.1751C54.1625 43.9876 53.375 43.6001 52.7125 43.0376C49.7625 40.5876 46.95 37.8876 44.3625 35.0001C43.25 33.7876 42.2 32.5376 41.175 31.2501C40.775 30.7501 40.3875 30.2501 40 29.7251C39.6125 30.2376 39.225 30.7501 38.8375 31.2376C37.8125 32.5251 36.75 33.7751 35.6375 35.0001C33.05 37.8876 30.2375 40.5876 27.2625 43.0626C26.6 43.6001 25.825 43.9876 25 44.1626V63.7501H26.225L23.7875 74.7251C23.6375 75.4001 24.0625 76.0626 24.7375 76.2126C25.4125 76.3626 26.075 75.9376 26.225 75.2626L26.2875 74.9876H53.725L53.7875 75.2626C53.9125 75.8501 54.4375 76.2376 55.0125 76.2376C55.1 76.2376 55.2 76.2376 55.2875 76.2126C55.9625 76.0626 56.3875 75.4001 56.2375 74.7251L53.8 63.7501H53.775ZM52.05 67.5001H27.95L28.5 65.0001H51.5L52.05 67.5001ZM47.5 42.5001V62.5001H32.5V42.5001H47.5ZM26.8375 72.5001L27.3875 70.0001H52.6L53.15 72.5001H26.825H26.8375Z" fill="#C1B8AB"/>
<path d="M16.4 35C16.65 33.8875 17.2625 32.85 18.2125 32.0625C21.6875 29.1625 31 32.8375 31 25.725C41.125 29.325 36.7625 16.6 38.5 13.5C29.1 12.775 14.8625 10.4625 6.25 6.675V5C6.25 4.3125 5.6875 3.75 5 3.75C4.3125 3.75 3.75 4.3125 3.75 5V31.25C3.75 33.3125 5.4375 35 7.5 35H16.4Z" fill="#C1B8AB"/>
<path d="M75 3.75C74.3125 3.75 73.75 4.3125 73.75 5V6.675C65.1375 10.4625 49.9 12.775 40.5 13.5C42.2375 16.6 39.1625 24 46.5 24C42.6625 31.6125 45.7125 37.45 56.5 34.5C51.7125 39.45 63.35 33.8875 63.6125 35H72.5C74.5625 35 76.25 33.3125 76.25 31.25V5C76.25 4.3125 75.6875 3.75 75 3.75Z" fill="#C1B8AB"/>
<path d="M21.3 27.375L17.4375 26.5C16.925 25.85 16.1875 31.7499 16 30.9999L7.5 33.9999V63.7498H10V73.7498C10 74.4373 10.5625 74.9998 11.25 74.9998H13.75C14.4375 74.9998 15 74.4373 15 73.7498V63.7498H27L31.7625 20.6125C30.6 20.325 22.0375 28.3125 21.3 27.375Z" fill="#C1B8AB"/>
<path d="M60 34.0002C59.8125 34.7502 56.5125 27.8625 56 28.5L51.5 28.5002C50.75 29.4502 48.675 33.7127 47.5 34.0002L53 63.7502H65V73.7502C65 74.4377 65.5625 75.0002 66.25 75.0002H68.75C69.4375 75.0002 70 74.4377 70 73.7502V63.7502H73.75V32.5002C73.35 32.5752 69.425 31.5002 69 31.5002L60 34.0002Z" fill="#C1B8AB"/>
<path d="M58.5125 40.7L60.6125 38.05C61.6125 36.8 61.425 35.0125 60.1875 33.975C56.5875 30.975 53.275 27.5875 50.375 23.9375C48.0125 20.9625 45.8875 17.775 44.05 14.45L41.25 9.375V5C41.25 4.3125 40.6875 3.75 40 3.75C39.3125 3.75 38.75 4.3125 38.75 5V9.375L35.95 14.45C34.1125 17.775 31.9875 20.9625 29.625 23.9375C26.725 27.5875 23.4125 30.975 19.8125 33.975C18.575 35.0125 18.3875 36.8 19.3875 38.0625L21.4875 40.7C21.975 41.3125 22.7125 41.7125 23.5 41.8C23.6 41.8125 23.7 41.8125 23.8125 41.8125C24.4875 41.8125 25.1375 41.575 25.6625 41.1375C24.525 40 28.2875 44.525 31.6125 40.35C32.6875 38.9875 39 37.9375 40 36.5C41 37.9375 44.925 37.6375 46 39C49.325 43.175 50.2125 37.7125 54.3375 41.1375C54.9375 41.65 55.7125 41.8875 56.5 41.8C57.2875 41.7125 58.025 41.3125 58.5125 40.7Z" fill="#C1B8AB"/>
</svg>
