<svg width="335" height="270" viewBox="0 0 335 270" fill="none" xmlns="http://www.w3.org/2000/svg">
<ellipse cx="89.995" cy="180" rx="89.995" ry="90" fill="#F15533"/>
<path fill-rule="evenodd" clip-rule="evenodd" d="M89.995 90.2336C89.8691 139.785 49.7009 179.924 0.140137 180C49.7059 180.075 89.8773 220.223 89.995 269.781C90.1127 220.223 130.284 180.075 179.85 180C130.289 179.924 90.1209 139.785 89.995 90.2336Z" fill="#FBA8B7"/>
<path d="M90 180C90 167.077 100.477 156.6 113.4 156.6V156.6V156.6C113.4 169.523 102.923 180 90 180V180V180Z" fill="#F15533"/>
<path d="M66.6001 203.4C66.6001 190.477 77.0766 180 90.0001 180V180V180C90.0001 192.923 79.5236 203.4 66.6001 203.4V203.4V203.4Z" fill="#F15533"/>
<path d="M90 180C90 167.077 79.5235 156.6 66.6 156.6V156.6V156.6C66.6 169.523 77.0765 180 90 180V180V180Z" fill="#F15533"/>
<path d="M113.4 203.4C113.4 190.477 102.923 180 89.9999 180V180V180C89.9999 192.923 100.476 203.4 113.4 203.4V203.4V203.4Z" fill="#F15533"/>
<path d="M90 90C101.819 90 113.522 92.3279 124.442 96.8508C135.361 101.374 145.282 108.003 153.64 116.36C161.997 124.718 168.626 134.639 173.149 145.558C177.672 156.478 180 168.181 180 180C180 191.819 177.672 203.522 173.149 214.442C168.626 225.361 161.997 235.282 153.64 243.64C145.282 251.997 135.361 258.626 124.442 263.149C113.522 267.672 101.819 270 90 270L90 180L90 90Z" fill="white" fill-opacity="0.2"/>
<ellipse cx="244.995" cy="90" rx="89.995" ry="90" fill="#F15533"/>
<path fill-rule="evenodd" clip-rule="evenodd" d="M244.995 0.233566C244.869 49.7852 204.701 89.9245 155.14 89.9999C204.706 90.0753 244.877 130.223 244.995 179.781C245.113 130.223 285.284 90.0751 334.85 89.9999C334.897 89.9998 334.943 90 334.99 90C334.943 90 334.897 89.9999 334.85 89.9999C285.289 89.9245 245.121 49.7852 244.995 0.233566Z" fill="#FBA8B7"/>
<path d="M245 90C245 77.0765 255.477 66.6 268.4 66.6V66.6V66.6C268.4 79.5235 257.923 90 245 90V90V90Z" fill="#F15533"/>
<path d="M221.6 113.4C221.6 100.477 232.077 90 245 90V90V90C245 102.923 234.524 113.4 221.6 113.4V113.4V113.4Z" fill="#F15533"/>
<path d="M245 90C245 77.0765 234.523 66.6 221.6 66.6V66.6V66.6C221.6 79.5235 232.077 90 245 90V90V90Z" fill="#F15533"/>
<path d="M268.4 113.4C268.4 100.477 257.923 90 245 90V90V90C245 102.923 255.476 113.4 268.4 113.4V113.4V113.4Z" fill="#F15533"/>
<path d="M245 0C256.819 0 268.522 2.32792 279.442 6.85084C290.361 11.3738 300.282 18.0031 308.64 26.3604C316.997 34.7177 323.626 44.6392 328.149 55.5585C332.672 66.4778 335 78.181 335 90C335 101.819 332.672 113.522 328.149 124.442C323.626 135.361 316.997 145.282 308.64 153.64C300.282 161.997 290.361 168.626 279.442 173.149C268.522 177.672 256.819 180 245 180L245 90V0Z" fill="white" fill-opacity="0.2"/>
</svg>
