<svg width="80" height="80" viewBox="0 0 80 80" fill="none" xmlns="http://www.w3.org/2000/svg">
<g clip-path="url(#clip0_164_2220)">
<path d="M79.9212 38.827C80.6544 30.6817 70.4622 20.0883 62.1598 19.982C62.16 19.9801 62.16 19.9783 62.1601 19.9764C70.4625 19.87 80.6544 9.3556 79.9212 1.21044C79.8651 0.587787 79.3709 0.0934124 78.7481 0.0373186C70.6601 -0.690494 60.2065 9.37107 59.9844 17.6567C59.9842 17.6567 59.9744 17.6567 59.9742 17.6567C59.752 9.37107 49.2984 -0.690494 41.2104 0.0374749C40.5878 0.0935686 40.0934 0.587944 40.0373 1.2106C39.3042 9.35576 49.4961 19.8701 57.7984 19.9765C57.7986 19.9784 57.7986 19.9803 57.7987 19.9822C49.8109 20.0844 40.0753 29.8208 40.0022 37.8128C40.002 37.8128 39.9978 37.8128 39.9976 37.8128C39.9245 29.8209 30.189 20.0844 22.2011 19.9822C22.2012 19.9803 22.2012 19.9784 22.2014 19.9765C30.5037 19.8701 40.6956 9.35576 39.9625 1.2106C39.9064 0.587944 39.4122 0.0935686 38.7894 0.0374749C30.7015 -0.690494 20.2479 9.37107 20.0258 17.6567C20.0256 17.6567 20.0158 17.6567 20.0156 17.6567C19.7934 9.37107 9.33982 -0.690494 1.25186 0.0374749C0.629199 0.0935686 0.134824 0.587787 0.0787302 1.2106C-0.654395 9.35576 9.53748 19.8701 17.8398 19.9765C17.84 19.9784 17.84 19.9803 17.8401 19.9822C9.53779 20.0883 -0.654395 30.6819 0.0787302 38.827C0.134824 39.4497 0.629043 39.944 1.25186 40.0001C0.629199 40.0562 0.134824 40.5506 0.0787302 41.1733C-0.652364 49.2945 9.47732 59.8483 17.7661 60.0159C9.47732 60.1831 -0.652207 70.6686 0.0787302 78.7898C0.134824 79.4125 0.629043 79.9068 1.25186 79.9629C9.38389 80.695 19.907 70.5193 20.0178 62.2084H20.0236C20.1344 70.5193 30.6575 80.6948 38.7895 79.9629C39.4122 79.9068 39.9065 79.4125 39.9626 78.7898C40.6936 70.6689 30.5647 60.1839 22.2761 60.0159C30.2498 59.8543 39.9248 50.1547 39.9978 42.1876H40.0023C40.0755 50.1767 49.8037 59.9089 57.79 60.0181C49.4892 60.1317 39.3045 70.6475 40.0375 78.7898C40.0936 79.4125 40.5878 79.9068 41.2106 79.9629C49.3426 80.695 59.8658 70.5193 59.9765 62.2084C59.9775 62.2084 59.9784 62.2086 59.9795 62.2086C59.9806 62.2086 59.9814 62.2084 59.9825 62.2084C60.0933 70.5193 70.6164 80.6948 78.7484 79.9629C79.3711 79.9068 79.8654 79.4125 79.9215 78.7898C80.6545 70.6475 70.4697 60.1315 62.169 60.0181C70.4698 59.9045 80.6545 49.3158 79.9215 41.1733C79.8654 40.5506 79.3712 40.0562 78.7484 40.0001C79.3708 39.944 79.8651 39.4497 79.9212 38.827ZM37.8145 40.0001C29.8414 40.1061 20.13 49.8511 20.0236 57.8336C20.0234 57.8336 20.0179 57.8336 20.0178 57.8336C19.9145 50.0853 10.7612 40.6493 2.93264 40.0001C10.807 39.3472 20.0223 29.8054 20.02 22.0314H20.0215C20.0189 30.039 29.7964 39.8936 37.8145 40.0001C37.8145 39.9964 37.8145 39.9926 37.8147 40.0001C37.8145 40.0076 37.8145 40.0039 37.8145 40.0001ZM57.7919 60.0192C57.7919 60.0186 57.7919 60.0179 57.7919 60.0181V60.0192ZM62.1667 60.0181C62.1667 60.0176 62.1669 60.022 62.1669 60.0211C62.1669 60.02 62.1667 60.019 62.1667 60.0181ZM59.9822 57.8336C59.9812 57.8336 59.9803 57.8334 59.9792 57.8334C59.9781 57.8334 59.9773 57.8336 59.9762 57.8336C59.87 49.8511 50.1586 40.1061 42.1854 40.0001C42.1854 40.0039 42.1854 40.0076 42.1853 40.0001C42.1854 39.9926 42.1854 39.9964 42.1854 40.0001C50.2036 39.8936 59.9809 30.039 59.9786 22.0314H59.9801C59.9778 29.8054 69.1931 39.3473 77.0675 40.0001C69.2387 40.6493 60.0854 50.0853 59.9822 57.8336Z" fill="#C1B8AB"/>
</g>
<defs>
<clipPath id="clip0_164_2220">
<rect width="80" height="80" fill="white"/>
</clipPath>
</defs>
</svg>
