<svg width="80" height="80" viewBox="0 0 80 80" fill="none" xmlns="http://www.w3.org/2000/svg">
<path d="M55.3156 58.8547L40.0001 52.1445L24.6844 58.8547C24.5075 58.9342 24.3097 58.9544 24.1205 58.9122V62.591C24.1205 63.0076 24.2025 63.4201 24.362 63.805C24.5214 64.1899 24.755 64.5396 25.0496 64.8341C25.3442 65.1287 25.6939 65.3624 26.0788 65.5218C26.4637 65.6812 26.8762 65.7633 27.2927 65.7633H52.7073C53.1239 65.7633 53.5364 65.6812 53.9213 65.5218C54.3061 65.3624 54.6559 65.1287 54.9504 64.8341C55.245 64.5396 55.4787 64.1899 55.6381 63.805C55.7975 63.4201 55.8796 63.0076 55.8796 62.591V58.9122C55.6903 58.9544 55.4925 58.9342 55.3156 58.8547Z" fill="#FFF9F0"/>
<path d="M67.5034 36.4136L43.2847 2.04025C42.9138 1.51382 42.4218 1.08424 41.8501 0.787725C41.2785 0.491206 40.6439 0.336426 40 0.336426C39.356 0.336426 38.7214 0.491206 38.1498 0.787725C37.5782 1.08424 37.0862 1.51382 36.7153 2.04025L12.4965 36.4136C6.83157 44.4538 12.582 55.5399 22.4175 55.5399H24.1203V57.0548L39.6237 50.2624C39.6295 50.2599 39.6355 50.2582 39.6413 50.2557C39.6562 50.2495 39.6713 50.244 39.6866 50.2385C39.7011 50.2334 39.7156 50.2283 39.7304 50.2239C39.7441 50.2197 39.7579 50.2163 39.7718 50.2127C39.7881 50.2086 39.8044 50.2045 39.8207 50.2013C39.8335 50.1989 39.8463 50.1971 39.8592 50.1951C39.8766 50.1924 39.8939 50.1898 39.9113 50.1881C39.9241 50.1869 39.937 50.1864 39.9499 50.1857C39.9671 50.1848 39.9844 50.1838 40.0016 50.1839C40.0152 50.1839 40.0288 50.1847 40.0424 50.1853C40.059 50.1861 40.0755 50.1868 40.092 50.1884C40.1061 50.1898 40.1201 50.192 40.1342 50.1941C40.1503 50.1964 40.1663 50.1988 40.1823 50.2019C40.196 50.2046 40.2097 50.2082 40.2234 50.2115C40.2397 50.2155 40.256 50.2196 40.2721 50.2245C40.285 50.2285 40.2978 50.233 40.3106 50.2375C40.3273 50.2434 40.344 50.2495 40.3604 50.2563C40.3657 50.2586 40.3711 50.2601 40.3764 50.2624L55.8796 57.0548V55.5399H57.5825C67.4179 55.5399 73.1684 44.4538 67.5034 36.4136ZM48.7177 48.5577C46.8928 48.556 45.1057 48.0378 43.563 47.063C42.0203 46.0882 40.785 44.6967 40 43.0493C39.215 44.6967 37.9797 46.0882 36.4369 47.063C34.8942 48.0378 33.1071 48.556 31.2822 48.5577C29.1846 48.5553 27.1736 47.721 25.6904 46.2378C24.2072 44.7546 23.3729 42.7436 23.3705 40.646C23.3725 38.9182 24.0597 37.2618 25.2814 36.04C26.5031 34.8183 28.1596 34.1311 29.8874 34.1291C31.3193 34.1308 32.6921 34.7003 33.7047 35.7129C34.7172 36.7254 35.2868 38.0982 35.2884 39.5301C35.287 40.7254 34.8116 41.8713 33.9664 42.7165C33.1212 43.5617 31.9753 44.0371 30.78 44.0384C30.5314 44.0384 30.2929 43.9396 30.1171 43.7638C29.9413 43.588 29.8425 43.3496 29.8425 43.1009C29.8425 42.8523 29.9413 42.6138 30.1171 42.438C30.2929 42.2622 30.5314 42.1634 30.78 42.1634C31.4782 42.1626 32.1475 41.885 32.6412 41.3913C33.1349 40.8976 33.4126 40.2283 33.4134 39.5301C33.4123 38.5953 33.0405 37.6991 32.3795 37.0381C31.7185 36.3771 30.8223 36.0052 29.8875 36.0041C28.6568 36.0055 27.4769 36.495 26.6067 37.3653C25.7365 38.2355 25.247 39.4153 25.2456 40.646C25.2474 42.2465 25.884 43.7809 27.0157 44.9126C28.1474 46.0443 29.6818 46.6809 31.2823 46.6827C33.345 46.6804 35.3226 45.8599 36.7812 44.4014C38.2398 42.9428 39.0603 40.9652 39.0626 38.9025C39.0611 40.3375 39.3814 41.7544 40 43.0493C40.6186 41.7545 40.9391 40.3375 40.9376 38.9025C40.9399 40.9652 41.7604 42.9427 43.2189 44.4013C44.6775 45.8599 46.655 46.6803 48.7177 46.6827C50.3182 46.6809 51.8526 46.0443 52.9843 44.9126C54.116 43.7809 54.7526 42.2465 54.7544 40.646C54.753 39.4153 54.2635 38.2355 53.3933 37.3653C52.5231 36.495 51.3432 36.0055 50.1126 36.0041C49.1777 36.0052 48.2815 36.377 47.6204 37.038C46.9594 37.6991 46.5876 38.5953 46.5866 39.5301C46.5873 40.2283 46.865 40.8976 47.3587 41.3913C47.8524 41.885 48.5218 42.1626 49.2199 42.1634C49.4686 42.1634 49.707 42.2622 49.8828 42.438C50.0586 42.6138 50.1574 42.8523 50.1574 43.1009C50.1574 43.3496 50.0586 43.588 49.8828 43.7638C49.707 43.9396 49.4686 44.0384 49.2199 44.0384C48.0246 44.0371 46.8787 43.5617 46.0335 42.7165C45.1883 41.8713 44.7129 40.7254 44.7116 39.5301C44.7132 38.0982 45.2827 36.7254 46.2952 35.7129C47.3078 34.7003 48.6806 34.1308 50.1125 34.1291C51.8403 34.1311 53.4967 34.8183 54.7185 36.04C55.9402 37.2618 56.6274 38.9182 56.6294 40.646C56.627 42.7436 55.7927 44.7546 54.3095 46.2378C52.8263 47.721 50.8153 48.5553 48.7177 48.5577ZM50.1125 32.464C48.6806 32.4623 47.3078 31.8928 46.2952 30.8802C45.2827 29.8677 44.7132 28.4949 44.7115 27.063C44.7129 25.8677 45.1883 24.7218 46.0335 23.8766C46.8787 23.0314 48.0246 22.556 49.2199 22.5547C49.4685 22.5547 49.707 22.6534 49.8828 22.8293C50.0586 23.0051 50.1574 23.2435 50.1574 23.4922C50.1574 23.7408 50.0586 23.9793 49.8828 24.1551C49.707 24.3309 49.4685 24.4297 49.2199 24.4297C48.5217 24.4304 47.8524 24.7081 47.3587 25.2018C46.865 25.6955 46.5873 26.3648 46.5865 27.063C46.5876 27.9978 46.9594 28.894 47.6204 29.555C48.2814 30.2161 49.1777 30.5879 50.1125 30.589C51.3432 30.5875 52.523 30.098 53.3932 29.2278C54.2635 28.3576 54.753 27.1777 54.7544 25.9471C54.7526 24.3466 54.116 22.8122 52.9843 21.6805C51.8526 20.5488 50.3182 19.9122 48.7177 19.9104C46.655 19.9128 44.6774 20.7332 43.2189 22.1918C41.7603 23.6504 40.9399 25.6279 40.9376 27.6906C40.939 26.2556 40.6187 24.8386 40.0001 23.5437C39.3815 24.8386 39.0611 26.2556 39.0626 27.6906C39.0602 25.6279 38.2398 23.6503 36.7812 22.1917C35.3226 20.7331 33.345 19.9127 31.2823 19.9104C29.6818 19.9122 28.1474 20.5488 27.0157 21.6805C25.884 22.8122 25.2474 24.3466 25.2456 25.9471C25.247 27.1777 25.7365 28.3576 26.6067 29.2278C27.4769 30.098 28.6568 30.5875 29.8875 30.589C30.8223 30.5879 31.7185 30.2161 32.3796 29.555C33.0406 28.894 33.4124 27.9978 33.4135 27.063C33.4127 26.3648 33.135 25.6955 32.6413 25.2018C32.1476 24.7081 31.4782 24.4304 30.7801 24.4297C30.5314 24.4297 30.293 24.3309 30.1172 24.1551C29.9414 23.9793 29.8426 23.7408 29.8426 23.4922C29.8426 23.2435 29.9414 23.0051 30.1172 22.8293C30.293 22.6534 30.5314 22.5547 30.7801 22.5547C31.9754 22.556 33.1213 23.0314 33.9665 23.8766C34.8117 24.7218 35.2871 25.8677 35.2885 27.063C35.2868 28.4949 34.7173 29.8677 33.7048 30.8802C32.6922 31.8928 31.3194 32.4623 29.8875 32.464C28.1597 32.462 26.5032 31.7748 25.2815 30.5531C24.0598 29.3313 23.3725 27.6749 23.3706 25.9471C23.373 23.8495 24.2073 21.8385 25.6905 20.3553C27.1737 18.8721 29.1847 18.0378 31.2823 18.0354C33.1072 18.0371 34.8943 18.5553 36.437 19.5301C37.9797 20.5049 39.215 21.8964 40.0001 23.5437C40.7851 21.8963 42.0203 20.5049 43.563 19.5301C45.1057 18.5553 46.8928 18.0371 48.7176 18.0354C50.8152 18.0378 52.8262 18.8721 54.3094 20.3553C55.7926 21.8385 56.627 23.8495 56.6293 25.9471C56.6274 27.6749 55.9402 29.3313 54.7185 30.553C53.4967 31.7748 51.8403 32.462 50.1125 32.464Z" fill="#FFF9F0"/>
<path d="M40.0001 79.6636C39.7514 79.6636 39.513 79.5648 39.3371 79.389C39.1613 79.2132 39.0626 78.9747 39.0626 78.7261V1.27393C39.0626 1.02529 39.1613 0.786829 39.3371 0.611013C39.513 0.435198 39.7514 0.336426 40.0001 0.336426C40.2487 0.336426 40.4872 0.435198 40.663 0.611013C40.8388 0.786829 40.9376 1.02529 40.9376 1.27393V78.7261C40.9376 78.9747 40.8388 79.2132 40.663 79.389C40.4872 79.5648 40.2487 79.6636 40.0001 79.6636Z" fill="#FFF9F0"/>
</svg>
