<svg width="80" height="80" viewBox="0 0 80 80" fill="none" xmlns="http://www.w3.org/2000/svg">
<path d="M76 72H74.6667V70.6667C74.6667 69.6058 74.2452 68.5884 73.4951 67.8382C72.745 67.0881 71.7275 66.6667 70.6667 66.6667H65.3333C62.4469 64.6049 60.0943 61.884 58.4709 58.7302C56.8476 55.5763 56.0005 52.0805 56 48.5333V45.3333C56.0005 43.7352 55.6413 42.1575 54.9488 40.7172C54.2564 39.2769 53.2485 38.011 52 37.0133V33.3333C52 32.2725 51.5786 31.2551 50.8284 30.5049C50.0783 29.7548 49.0609 29.3333 48 29.3333V26.6667C48 25.9594 47.7191 25.2811 47.219 24.781C46.7189 24.281 46.0406 24 45.3333 24L40 0L34.6667 24C33.9594 24 33.2811 24.281 32.7811 24.781C32.281 25.2811 32 25.9594 32 26.6667V29.3333C30.9391 29.3333 29.9217 29.7548 29.1716 30.5049C28.4214 31.2551 28 32.2725 28 33.3333V37.0133C26.7515 38.011 25.7437 39.2769 25.0512 40.7172C24.3587 42.1575 23.9995 43.7352 24 45.3333V48.5333C23.9995 52.0805 23.1524 55.5763 21.5291 58.7302C19.9057 61.884 17.5531 64.6049 14.6667 66.6667H9.33333C8.27247 66.6667 7.25505 67.0881 6.50491 67.8382C5.75476 68.5884 5.33333 69.6058 5.33333 70.6667V72H4C2.93913 72 1.92172 72.4214 1.17157 73.1716C0.421427 73.9217 0 74.9391 0 76V80H80V76C80 74.9391 79.5786 73.9217 78.8284 73.1716C78.0783 72.4214 77.0609 72 76 72Z" fill="#C1B8AB"/>
</svg>
